<svg id="Calque_1" data-name="Calque 1" xmlns="http://www.w3.org/2000/svg" viewBox="0 0 143.04 90.82"><defs><style>.cls-1{fill:#004750;}.cls-2{fill:#b1b1b1;}</style></defs><title>logo-service</title><path class="cls-1" d="M8.1,107.45v-.24a6,6,0,0,1-.95.9,3.54,3.54,0,0,1-1,.53,3.78,3.78,0,0,1-1.2.18,3.57,3.57,0,0,1-1.59-.37,3.71,3.71,0,0,1-1.27-1,4.77,4.77,0,0,1-.81-1.59,6.85,6.85,0,0,1-.27-2,5.18,5.18,0,0,1,1.09-3.51A3.67,3.67,0,0,1,5,99.09a3.87,3.87,0,0,1,1.75.36,4.83,4.83,0,0,1,1.38,1.1V97a1.82,1.82,0,0,1,.29-1.11,1,1,0,0,1,.85-.38,1,1,0,0,1,.84.35,1.57,1.57,0,0,1,.29,1v10.57a1.45,1.45,0,0,1-.31,1,1.09,1.09,0,0,1-.82.35,1.06,1.06,0,0,1-.82-.36A1.47,1.47,0,0,1,8.1,107.45Zm-4.72-3.51a4.12,4.12,0,0,0,.31,1.65,2.28,2.28,0,0,0,.83,1,2,2,0,0,0,1.15.35,2.11,2.11,0,0,0,1.15-.33,2.3,2.3,0,0,0,.84-1A4,4,0,0,0,8,103.94a4,4,0,0,0-.31-1.65,2.43,2.43,0,0,0-.85-1.05,2,2,0,0,0-1.16-.37,2,2,0,0,0-1.18.38,2.35,2.35,0,0,0-.8,1.07A4.22,4.22,0,0,0,3.38,103.94Z"/><path class="cls-1" d="M19,107.45v-.3a6,6,0,0,1-.9.91,3.71,3.71,0,0,1-1,.55,4.17,4.17,0,0,1-1.28.18,3.4,3.4,0,0,1-1.55-.36,2.63,2.63,0,0,1-1.07-1,4.39,4.39,0,0,1-.44-2.2V100.5A1.51,1.51,0,0,1,13,99.43a1.08,1.08,0,0,1,.85-.36,1.15,1.15,0,0,1,.88.36,1.54,1.54,0,0,1,.33,1.07v3.83a6.11,6.11,0,0,0,.14,1.4,1.64,1.64,0,0,0,.51.89,1.44,1.44,0,0,0,1,.32,2,2,0,0,0,1.15-.36,2.22,2.22,0,0,0,.78-.94,7.74,7.74,0,0,0,.2-2.23V100.5a1.54,1.54,0,0,1,.33-1.07,1.14,1.14,0,0,1,.87-.36,1.1,1.1,0,0,1,.86.36,1.55,1.55,0,0,1,.32,1.07v6.93a1.48,1.48,0,0,1-.31,1,1,1,0,0,1-.8.34,1.05,1.05,0,0,1-.81-.35A1.46,1.46,0,0,1,19,107.45Z"/><path class="cls-1" d="M25.83,96.88v3.67a5.36,5.36,0,0,1,1.38-1.09,3.6,3.6,0,0,1,1.73-.37,3.83,3.83,0,0,1,2.09.57,3.69,3.69,0,0,1,1.39,1.64,6.08,6.08,0,0,1,.49,2.55,7.06,7.06,0,0,1-.27,2,4.85,4.85,0,0,1-.8,1.57,3.54,3.54,0,0,1-1.28,1,3.74,3.74,0,0,1-1.65.37,4.36,4.36,0,0,1-1-.13,3.11,3.11,0,0,1-.82-.35,3.51,3.51,0,0,1-.58-.44,6.76,6.76,0,0,1-.64-.69v.24a1.47,1.47,0,0,1-.32,1,1.11,1.11,0,0,1-.83.35,1.06,1.06,0,0,1-.82-.35,1.51,1.51,0,0,1-.3-1V97a1.74,1.74,0,0,1,.3-1.1,1,1,0,0,1,.82-.37,1.06,1.06,0,0,1,.85.35A1.55,1.55,0,0,1,25.83,96.88Zm.11,7.12a3.27,3.27,0,0,0,.66,2.2,2.13,2.13,0,0,0,1.71.77,1.94,1.94,0,0,0,1.55-.79,3.38,3.38,0,0,0,.66-2.24,4.46,4.46,0,0,0-.28-1.64,2.28,2.28,0,0,0-.77-1,1.88,1.88,0,0,0-1.16-.38,2.08,2.08,0,0,0-1.22.38,2.39,2.39,0,0,0-.84,1.08A4.22,4.22,0,0,0,25.94,104Z"/><path class="cls-1" d="M34.61,107.36V97a1.62,1.62,0,0,1,.32-1.08,1.06,1.06,0,0,1,.86-.37,1.12,1.12,0,0,1,.87.36A1.55,1.55,0,0,1,37,97v10.4a1.52,1.52,0,0,1-.34,1.09,1.13,1.13,0,0,1-.87.37,1.08,1.08,0,0,1-.85-.38A1.59,1.59,0,0,1,34.61,107.36Z"/><path class="cls-1" d="M40.69,98a1.24,1.24,0,0,1-.86-.3,1.19,1.19,0,0,1,0-1.7,1.27,1.27,0,0,1,1.67,0,1,1,0,0,1,.35.87,1.07,1.07,0,0,1-.34.85A1.21,1.21,0,0,1,40.69,98Zm1.17,2.49v6.92a1.55,1.55,0,0,1-.34,1.09,1.13,1.13,0,0,1-.86.37,1.08,1.08,0,0,1-.85-.38,1.59,1.59,0,0,1-.33-1.08V100.5a1.54,1.54,0,0,1,.33-1.07,1.1,1.1,0,0,1,.85-.36,1.12,1.12,0,0,1,.86.36A1.4,1.4,0,0,1,41.86,100.44Z"/><path class="cls-1" d="M46.5,100.4v.29a4.15,4.15,0,0,1,1.38-1.23,3.74,3.74,0,0,1,1.73-.39,3.39,3.39,0,0,1,1.69.42,2.62,2.62,0,0,1,1.12,1.16,2.58,2.58,0,0,1,.3.95,9.3,9.3,0,0,1,.07,1.3v4.46a1.59,1.59,0,0,1-.32,1.09,1.19,1.19,0,0,1-1.73,0,1.59,1.59,0,0,1-.33-1.08v-4a4,4,0,0,0-.33-1.81,1.33,1.33,0,0,0-1.31-.63,2,2,0,0,0-1.17.38,2.22,2.22,0,0,0-.77,1,7.41,7.41,0,0,0-.18,2v3a1.52,1.52,0,0,1-.34,1.09,1.13,1.13,0,0,1-.86.37,1.08,1.08,0,0,1-.85-.38,1.59,1.59,0,0,1-.33-1.08v-6.92a1.58,1.58,0,0,1,.29-1,1.05,1.05,0,0,1,.82-.34,1.06,1.06,0,0,1,1,.6A1.61,1.61,0,0,1,46.5,100.4Z"/><path class="cls-1" d="M57.4,96.88v3.67a5.36,5.36,0,0,1,1.38-1.09,3.6,3.6,0,0,1,1.73-.37,3.83,3.83,0,0,1,2.09.57A3.69,3.69,0,0,1,64,101.3a6.07,6.07,0,0,1,.5,2.55,7.05,7.05,0,0,1-.28,2,4.85,4.85,0,0,1-.8,1.57,3.54,3.54,0,0,1-1.28,1,3.74,3.74,0,0,1-1.65.37,4.27,4.27,0,0,1-1-.13,3.19,3.19,0,0,1-.83-.35,3.51,3.51,0,0,1-.58-.44,6.76,6.76,0,0,1-.64-.69v.24a1.47,1.47,0,0,1-.32,1,1.11,1.11,0,0,1-.83.35,1,1,0,0,1-.81-.35,1.47,1.47,0,0,1-.31-1V97a1.74,1.74,0,0,1,.3-1.1,1,1,0,0,1,.82-.37,1.06,1.06,0,0,1,.85.35A1.55,1.55,0,0,1,57.4,96.88Zm.12,7.12a3.27,3.27,0,0,0,.65,2.2,2.13,2.13,0,0,0,1.71.77,1.94,1.94,0,0,0,1.55-.79,3.38,3.38,0,0,0,.66-2.24,4.26,4.26,0,0,0-.28-1.64,2.28,2.28,0,0,0-.77-1,1.88,1.88,0,0,0-1.16-.38,2.08,2.08,0,0,0-1.22.38,2.46,2.46,0,0,0-.84,1.08A4.22,4.22,0,0,0,57.52,104Z"/><path class="cls-1" d="M67.63,98a1.21,1.21,0,0,1-.85-.3,1.17,1.17,0,0,1,0-1.7,1.2,1.2,0,0,1,.84-.33,1.24,1.24,0,0,1,.82.3,1,1,0,0,1,.35.87,1.07,1.07,0,0,1-.34.85A1.21,1.21,0,0,1,67.63,98Zm1.17,2.49v6.92a1.55,1.55,0,0,1-.34,1.09,1.13,1.13,0,0,1-.86.37,1.08,1.08,0,0,1-.85-.38,1.59,1.59,0,0,1-.33-1.08V100.5a1.54,1.54,0,0,1,.33-1.07,1.1,1.1,0,0,1,.85-.36,1.12,1.12,0,0,1,.86.36A1.4,1.4,0,0,1,68.8,100.44Z"/><path class="cls-1" d="M77.25,107.72l-2.12-3.47-1.3,1.22v1.91a1.45,1.45,0,0,1-.36,1.06,1.13,1.13,0,0,1-.84.38,1.1,1.1,0,0,1-.86-.37,1.65,1.65,0,0,1-.32-1.09V97.14a2,2,0,0,1,.31-1.21,1,1,0,0,1,.87-.42,1.11,1.11,0,0,1,.88.37A1.74,1.74,0,0,1,73.83,97v5.8l2.7-2.82a5.3,5.3,0,0,1,.76-.71,1,1,0,0,1,.64-.2,1.05,1.05,0,0,1,.75.29,1,1,0,0,1,.29.71c0,.36-.32.82-1,1.41l-1.27,1.16,2.45,3.87c.18.28.32.5.4.65a1,1,0,0,1,.11.43,1.25,1.25,0,0,1-.31.9,1.08,1.08,0,0,1-.82.33.92.92,0,0,1-.68-.24A6.42,6.42,0,0,1,77.25,107.72Z"/><path class="cls-1" d="M87.58,104.54H82.89a3.11,3.11,0,0,0,.34,1.43,2.21,2.21,0,0,0,.84.94,2.3,2.3,0,0,0,1.18.32,2.45,2.45,0,0,0,.78-.11,2.36,2.36,0,0,0,.69-.31,4.06,4.06,0,0,0,.61-.46c.19-.16.43-.39.73-.66a.76.76,0,0,1,.53-.16.88.88,0,0,1,.59.2.7.7,0,0,1,.23.57,1.54,1.54,0,0,1-.25.76,3.1,3.1,0,0,1-.77.83,4.11,4.11,0,0,1-1.29.66,5.41,5.41,0,0,1-1.78.27,4.76,4.76,0,0,1-3.59-1.32,4.88,4.88,0,0,1-1.28-3.57,5.94,5.94,0,0,1,.31-2,4.33,4.33,0,0,1,.92-1.56,4.16,4.16,0,0,1,1.5-1,5.34,5.34,0,0,1,2-.34,4.61,4.61,0,0,1,2.41.59,3.93,3.93,0,0,1,1.5,1.53,4.1,4.1,0,0,1,.5,1.92c0,.6-.17,1-.52,1.17A3.17,3.17,0,0,1,87.58,104.54Zm-4.69-1.37h4.35a2.86,2.86,0,0,0-.67-1.83,2,2,0,0,0-1.51-.61,1.9,1.9,0,0,0-1.47.62A3.13,3.13,0,0,0,82.89,103.17Z"/><path class="cls-1" d="M99.27,105.68a2.78,2.78,0,0,1-1.9,2.77,6.48,6.48,0,0,1-2.3.37,5.49,5.49,0,0,1-2.21-.4,3.17,3.17,0,0,1-1.36-1,2,2,0,0,1-.44-1.19.93.93,0,0,1,.28-.67,1,1,0,0,1,.72-.28.84.84,0,0,1,.58.18A2.07,2.07,0,0,1,93,106a2.54,2.54,0,0,0,.88,1,2.62,2.62,0,0,0,1.39.32,2.05,2.05,0,0,0,1.18-.32.89.89,0,0,0,.46-.73,1,1,0,0,0-.48-.92,5.77,5.77,0,0,0-1.57-.56,13.36,13.36,0,0,1-2-.64,3.37,3.37,0,0,1-1.25-.89,2,2,0,0,1-.46-1.36,2.36,2.36,0,0,1,.43-1.36,3,3,0,0,1,1.27-1,4.89,4.89,0,0,1,2-.38,6.53,6.53,0,0,1,1.67.2,4.17,4.17,0,0,1,1.24.51,2.6,2.6,0,0,1,.75.72,1.45,1.45,0,0,1,.26.77.88.88,0,0,1-.28.68,1.1,1.1,0,0,1-.78.26,1,1,0,0,1-.63-.21,4.15,4.15,0,0,1-.59-.63,2.27,2.27,0,0,0-.64-.56,2,2,0,0,0-1-.21,2,2,0,0,0-1.07.27.81.81,0,0,0-.43.69.76.76,0,0,0,.31.62,2.59,2.59,0,0,0,.85.4q.54.17,1.47.39a7.91,7.91,0,0,1,1.82.65,3,3,0,0,1,1.07.89A2,2,0,0,1,99.27,105.68Z"/><path class="cls-2" d="M114.3,8A7.87,7.87,0,1,1,98.57,8,7.87,7.87,0,1,1,114.3,8Z"/><path class="cls-2" d="M108.25,28h15.39s4.84,3.29,0,6.23H106.18l-7.27-8.65L87.85,34.41l13,9.86-.52,26.45-8-.34L91.65,50,73,39.08s-4.15-4.84,1.55-9.68l16.6-16.26A6,6,0,0,1,99.6,14C103.76,18.5,108.25,28,108.25,28Z"/><polygon class="cls-2" points="122.29 61.82 126.31 60.78 119.44 33.03 115.03 32.9 122.29 61.82"/><path class="cls-2" d="M143,64.54a20.17,20.17,0,1,1-20.16-20.62A20.39,20.39,0,0,1,143,64.54ZM122.88,46.9A17.58,17.58,0,1,0,140,64.48,17.36,17.36,0,0,0,122.88,46.9Z"/><path class="cls-1" d="M100.83,79.87a3,3,0,0,1-2.06,3,6.92,6.92,0,0,1-2.47.39,5.94,5.94,0,0,1-2.39-.43,3.54,3.54,0,0,1-1.47-1.06A2.2,2.2,0,0,1,92,80.48a1,1,0,0,1,.3-.73,1.06,1.06,0,0,1,.77-.3.9.9,0,0,1,.63.2,2,2,0,0,1,.42.56,2.89,2.89,0,0,0,1,1,2.84,2.84,0,0,0,1.51.34,2.21,2.21,0,0,0,1.27-.34,1,1,0,0,0,.49-.8,1.08,1.08,0,0,0-.51-1,6.4,6.4,0,0,0-1.7-.6,14.39,14.39,0,0,1-2.17-.69,3.69,3.69,0,0,1-1.34-1,2.19,2.19,0,0,1-.51-1.47,2.59,2.59,0,0,1,.47-1.47,3.15,3.15,0,0,1,1.36-1.1,5.38,5.38,0,0,1,2.19-.41,7.56,7.56,0,0,1,1.8.2,4.55,4.55,0,0,1,1.33.56,2.8,2.8,0,0,1,.82.78,1.47,1.47,0,0,1,.28.83,1,1,0,0,1-.3.73,1.18,1.18,0,0,1-.85.28,1,1,0,0,1-.67-.22,4,4,0,0,1-.64-.69,2.45,2.45,0,0,0-.69-.6,2.19,2.19,0,0,0-1.08-.23,2.11,2.11,0,0,0-1.16.3.89.89,0,0,0-.46.74.79.79,0,0,0,.34.67,2.54,2.54,0,0,0,.92.43c.38.12.91.26,1.58.42a8.61,8.61,0,0,1,2,.7,3.32,3.32,0,0,1,1.16,1A2.14,2.14,0,0,1,100.83,79.87Z"/><rect class="cls-1" x="46.82" y="29.79" width="7.39" height="56.28"/><path class="cls-1" d="M91.56,64.71A22.24,22.24,0,1,1,69.32,42.24,22.36,22.36,0,0,1,91.56,64.71ZM69.06,49.06c-8.21,0-14.87,6.95-14.87,15.51s6.66,15.51,14.87,15.51,14.87-6.94,14.87-15.51S77.27,49.06,69.06,49.06Z"/><rect class="cls-1" x="37.35" y="29.79" width="7.39" height="56.28"/><path class="cls-1" d="M22.24,42.24a22.48,22.48,0,0,1,0,44.95,22.48,22.48,0,0,1,0-44.95ZM7.63,64.57c0,8.57,6.66,15.51,14.87,15.51s14.87-6.94,14.87-15.51S30.71,49.06,22.5,49.06,7.63,56,7.63,64.57Z"/></svg>
